<svg xmlns="http://www.w3.org/2000/svg" viewBox="0 0 64 64"><rect width="64" height="64" rx="14" fill="#0F172A"/><g transform="translate(4.32 43.88)"><path fill="#F8FAFC" d="M 19.17 -22.59 L 19.17 -17.66 Q 17.25 -18.52 15.42 -18.95 Q 13.60 -19.39 11.97 -19.39 Q 9.81 -19.39 8.78 -18.80 Q 7.75 -18.21 7.75 -16.96 Q 7.75 -16.02 8.45 -15.49 Q 9.14 -14.97 10.97 -14.60 L 13.53 -14.08 Q 17.42 -13.29 19.06 -11.70 Q 20.71 -10.11 20.71 -7.17 Q 20.71 -3.31 18.41 -1.43 Q 16.12 0.46 11.42 0.46 Q 9.21 0.46 6.97 0.03 Q 4.74 -0.39 2.50 -1.22 L 2.50 -6.29 Q 4.74 -5.11 6.82 -4.50 Q 8.90 -3.91 10.85 -3.91 Q 12.81 -3.91 13.86 -4.56 Q 14.91 -5.22 14.91 -6.44 Q 14.91 -7.53 14.20 -8.12 Q 13.48 -8.72 11.36 -9.19 L 9.03 -9.71 Q 5.53 -10.46 3.91 -12.10 Q 2.29 -13.73 2.29 -16.52 Q 2.29 -20.00 4.54 -21.88 Q 6.79 -23.75 11.02 -23.75 Q 12.94 -23.75 14.97 -23.46 Q 17.00 -23.17 19.17 -22.59 Z"/><path fill="#38BDF8" d="M 26.15 -23.33 L 32.16 -23.33 L 32.16 -0.00 L 26.15 -0.00 L 26.15 -23.33 Z"/><path fill="#F8FAFC" d="M 53.83 -22.59 L 53.83 -17.66 Q 51.91 -18.52 50.08 -18.95 Q 48.26 -19.39 46.63 -19.39 Q 44.48 -19.39 43.44 -18.80 Q 42.41 -18.21 42.41 -16.96 Q 42.41 -16.02 43.11 -15.49 Q 43.80 -14.97 45.63 -14.60 L 48.19 -14.08 Q 52.08 -13.29 53.72 -11.70 Q 55.37 -10.11 55.37 -7.17 Q 55.37 -3.31 53.08 -1.43 Q 50.79 0.46 46.08 0.46 Q 43.87 0.46 41.63 0.03 Q 39.40 -0.39 37.16 -1.22 L 37.16 -6.29 Q 39.40 -5.11 41.48 -4.50 Q 43.57 -3.91 45.51 -3.91 Q 47.48 -3.91 48.52 -4.56 Q 49.57 -5.22 49.57 -6.44 Q 49.57 -7.53 48.86 -8.12 Q 48.15 -8.72 46.02 -9.19 L 43.69 -9.71 Q 40.19 -10.46 38.57 -12.10 Q 36.96 -13.73 36.96 -16.52 Q 36.96 -20.00 39.21 -21.88 Q 41.46 -23.75 45.68 -23.75 Q 47.60 -23.75 49.63 -23.46 Q 51.66 -23.17 53.83 -22.59 Z"/></g></svg>
